<svg width="24" height="24" viewBox="0 0 24 24" fill="none" xmlns="http://www.w3.org/2000/svg">
<path d="M16.5 21C17.3284 21 18 20.3284 18 19.5C18 18.6716 17.3284 18 16.5 18C15.6716 18 15 18.6716 15 19.5C15 20.3284 15.6716 21 16.5 21Z" fill="black"/>
<path d="M7.5 21C8.32843 21 9 20.3284 9 19.5C9 18.6716 8.32843 18 7.5 18C6.67157 18 6 18.6716 6 19.5C6 20.3284 6.67157 21 7.5 21Z" fill="black"/>
<path d="M18 18H6" stroke="black" stroke-width="2" stroke-linecap="round" stroke-linejoin="round"/>
<path d="M17 2C14.79 2 13 3.79 13 6C13 8.21 14.79 10 17 10C19.21 10 21 8.21 21 6C21 3.79 19.21 2 17 2ZM17 8.71001L15.15 6.86L15.86 6.14999L16.51 6.8V4.00999H17.51V6.8L18.16 6.14999L18.87 6.86L17.02 8.71001H17Z" fill="black"/>
<path d="M4 4H6L7 14H17L17.14 13" stroke="black" stroke-width="2" stroke-linecap="round" stroke-linejoin="round"/>
<path d="M7 7H10" stroke="black" stroke-width="2" stroke-linecap="round" stroke-linejoin="round"/>
</svg>
