<svg width="24" height="24" viewBox="0 0 24 24" fill="none" xmlns="http://www.w3.org/2000/svg">
<path d="M16.5 21C17.3284 21 18 20.3284 18 19.5C18 18.6716 17.3284 18 16.5 18C15.6716 18 15 18.6716 15 19.5C15 20.3284 15.6716 21 16.5 21Z" fill="black"/>
<path d="M7.5 21C8.32843 21 9 20.3284 9 19.5C9 18.6716 8.32843 18 7.5 18C6.67157 18 6 18.6716 6 19.5C6 20.3284 6.67157 21 7.5 21Z" fill="black"/>
<path d="M18 18H6" stroke="black" stroke-width="2" stroke-linecap="round" stroke-linejoin="round"/>
<circle cx="17" cy="6" r="4" stroke="black" stroke-width="1.5"/>
<path d="M17 8.3C17 8.3 14.6 6.7 14.6 5C14.6 4.1 15.3 3.4 16.2 3.4C16.5 3.4 16.8 3.6 17 3.9C17.2 3.6 17.5 3.4 17.8 3.4C18.7 3.4 19.4 4.1 19.4 5C19.4 6.7 17 8.3 17 8.3Z" stroke="black" stroke-width="1.3" stroke-linecap="round" stroke-linejoin="round"/>
<path d="M4 4H6L7 14H17L17.14 13" stroke="black" stroke-width="2" stroke-linecap="round" stroke-linejoin="round"/>
<path d="M7 7H10" stroke="black" stroke-width="2" stroke-linecap="round" stroke-linejoin="round"/>
</svg>
