<svg width="24" height="24" viewBox="0 0 24 24" fill="none" xmlns="http://www.w3.org/2000/svg">
<path d="M16.5 21C17.3284 21 18 20.3284 18 19.5C18 18.6716 17.3284 18 16.5 18C15.6716 18 15 18.6716 15 19.5C15 20.3284 15.6716 21 16.5 21Z" fill="black"/>
<path d="M7.5 21C8.32843 21 9 20.3284 9 19.5C9 18.6716 8.32843 18 7.5 18C6.67157 18 6 18.6716 6 19.5C6 20.3284 6.67157 21 7.5 21Z" fill="black"/>
<path d="M18 18H6" stroke="black" stroke-width="2" stroke-linecap="round" stroke-linejoin="round"/>
<path d="M17 2C14.79 2 13 3.79 13 6C13 8.21 14.79 10 17 10C19.21 10 21 8.21 21 6C21 3.79 19.21 2 17 2ZM19.04 6.31L17 8.2L14.96 6.31C14.47 5.82 14.48 5.01 14.99 4.53C15.45 4.1 16.19 4.09 16.66 4.52C16.81 4.66 16.92 4.82 16.99 5C16.99 5 17 5 17.01 5C17.08 4.82 17.19 4.66 17.34 4.52C17.81 4.09 18.55 4.1 19.01 4.53C19.52 5.01 19.53 5.82 19.04 6.31Z" fill="black"/>
<path d="M4 4H6L7 14H17L17.14 13" stroke="black" stroke-width="2" stroke-linecap="round" stroke-linejoin="round"/>
<path d="M7 7H10" stroke="black" stroke-width="2" stroke-linecap="round" stroke-linejoin="round"/>
</svg>
