<svg width="24" height="24" viewBox="0 0 24 24" fill="none" xmlns="http://www.w3.org/2000/svg">
<path d="M17.5 21C18.3284 21 19 20.3284 19 19.5C19 18.6716 18.3284 18 17.5 18C16.6716 18 16 18.6716 16 19.5C16 20.3284 16.6716 21 17.5 21Z" fill="black"/>
<path d="M8.5 21C9.32843 21 10 20.3284 10 19.5C10 18.6716 9.32843 18 8.5 18C7.67157 18 7 18.6716 7 19.5C7 20.3284 7.67157 21 8.5 21Z" fill="black"/>
<path d="M7 18H19" stroke="black" stroke-width="2" stroke-linecap="round" stroke-linejoin="round"/>
<path d="M8 7H19L18 14H8L7 4H5" stroke="black" stroke-width="2" stroke-linecap="round" stroke-linejoin="round"/>
</svg>
